<svg width="25" height="25" viewBox="0 0 25 25" fill="none" xmlns="http://www.w3.org/2000/svg">
<path fill-rule="evenodd" clip-rule="evenodd" d="M13.5001 15.0898V5.50406L16.0859 8.08984C16.4764 8.48037 17.1096 8.48037 17.5001 8.08984C17.8906 7.69932 17.8906 7.06615 17.5001 6.67563L13.2072 2.38274C12.8167 1.99221 12.1835 1.99221 11.793 2.38274L7.50008 6.67563C7.10955 7.06615 7.10955 7.69932 7.50008 8.08984C7.8906 8.48037 8.52376 8.48037 8.91429 8.08984L11.5001 5.50406V15.0898C11.5001 15.6421 11.9478 16.0898 12.5001 16.0898C13.0524 16.0898 13.5001 15.6421 13.5001 15.0898ZM21.5 12.0897C21.5 11.5374 21.0523 11.0897 20.5 11.0897C19.9477 11.0897 19.5 11.5374 19.5 12.0897V19.0897C19.5 19.642 19.0523 20.0897 18.5 20.0897H6.5C5.94772 20.0897 5.5 19.642 5.5 19.0897V12.0897C5.5 11.5374 5.05228 11.0897 4.5 11.0897C3.94772 11.0897 3.5 11.5374 3.5 12.0897V20.0897C3.5 21.1943 4.39543 22.0897 5.5 22.0897H19.5C20.6046 22.0897 21.5 21.1943 21.5 20.0897V12.0897Z" fill="#0F1222"/>
</svg>
